<svg width="17" height="30" fill="#fff" xmlns="http://www.w3.org/2000/svg"><path d="M11.011 1.935l.194.03h2.672V4.87h-2.673c-.15 0-.295.01-.434.03a.932.932 0 00-.338.106 1.99 1.99 0 00-.242.166c-.075.06-.14.121-.193.182a.909.909 0 00-.193.378l-.032.151-.016.106v4.657h5.216l-.741 2.903H9.756v14.516H6.665V13.548H2.544v-2.903h4.12V6.14c0-.625.087-1.184.258-1.678.172-.494.403-.882.693-1.165.29-.282.584-.524.885-.725.3-.202.633-.343.998-.424.365-.08.655-.136.87-.166.214-.03.429-.046.643-.046zm0-1.935C9.681 0 8.49.302 7.437.907 5.55 1.976 4.604 3.72 4.604 6.14v2.57h-2.06c-.559 0-1.042.192-1.45.575-.407.383-.611.837-.611 1.361v2.903c0 .525.204.978.612 1.361.407.383.89.575 1.449.575h2.06v12.55c0 .545.199 1.003.596 1.376.397.373.885.56 1.465.56h3.09c.559 0 1.042-.187 1.45-.56.407-.373.611-.831.611-1.376v-12.55h2.415c.472 0 .89-.131 1.256-.393.365-.262.611-.595.74-.998l.709-2.903c.193-.625.085-1.195-.322-1.71-.408-.513-.956-.77-1.643-.77h-3.155V6.804h2.06c.559 0 1.042-.191 1.45-.574.407-.383.611-.837.611-1.361V1.966c0-.545-.198-1.003-.595-1.376a2.019 2.019 0 00-1.433-.56h-2.64A1.124 1.124 0 0011.01 0z"/></svg>