<svg width="30" height="30" fill="#fff" xmlns="http://www.w3.org/2000/svg"><path d="M14.97.117c2.5 0 4.542.03 6.124.088 1.347.059 2.549.293 3.603.703a7.476 7.476 0 012.637 1.7 7.475 7.475 0 011.7 2.636c.41 1.055.644 2.256.702 3.604.059 1.582.088 3.623.088 6.123s-.03 4.54-.088 6.123c-.058 1.347-.293 2.549-.703 3.603a7.475 7.475 0 01-1.699 2.637 7.475 7.475 0 01-2.637 1.7c-1.054.41-2.256.644-3.603.702-1.582.059-3.623.088-6.123.088s-4.541-.03-6.123-.088c-1.348-.058-2.55-.293-3.604-.703a7.475 7.475 0 01-2.637-1.699 7.476 7.476 0 01-1.699-2.637c-.41-1.054-.644-2.256-.703-3.603a172.004 172.004 0 01-.088-6.123c0-2.5.03-4.541.088-6.123.059-1.348.293-2.55.703-3.604a7.476 7.476 0 011.7-2.637A7.476 7.476 0 015.243.908C6.3.498 7.5.264 8.848.205 10.43.146 12.47.117 14.97.117zm0 1.934c-2.597 0-4.716.03-6.357.088a9.405 9.405 0 00-2.93.556c-1.406.586-2.402 1.582-2.988 2.989a9.405 9.405 0 00-.556 2.93 185.26 185.26 0 00-.088 6.357c0 2.597.03 4.716.088 6.357a9.405 9.405 0 00.556 2.93c.586 1.406 1.582 2.402 2.989 2.988a9.404 9.404 0 002.93.557c1.64.058 3.759.088 6.357.088 2.597 0 4.716-.03 6.357-.088a9.404 9.404 0 002.93-.557c1.406-.586 2.402-1.582 2.988-2.988a9.404 9.404 0 00.557-2.93c.058-1.64.088-3.76.088-6.357 0-2.598-.03-4.717-.088-6.358a9.404 9.404 0 00-.557-2.93c-.586-1.406-1.582-2.402-2.988-2.988a9.405 9.405 0 00-2.93-.556c-1.64-.059-3.76-.088-6.357-.088zm0 18.867c1.641 0 3.043-.581 4.205-1.743 1.162-1.162 1.743-2.564 1.743-4.204 0-1.64-.581-3.042-1.743-4.204-1.162-1.163-2.564-1.744-4.204-1.744-1.64 0-3.042.581-4.204 1.744-1.163 1.162-1.744 2.563-1.744 4.204 0 1.64.581 3.042 1.744 4.204 1.162 1.162 2.563 1.743 4.204 1.743zm0-13.564c2.11 0 3.907.742 5.391 2.226 1.485 1.485 2.227 3.281 2.227 5.39 0 2.11-.742 3.907-2.227 5.391-1.484 1.485-3.28 2.227-5.39 2.227s-3.906-.742-5.39-2.227c-1.485-1.484-2.227-3.28-2.227-5.39s.742-3.906 2.226-5.39c1.485-1.485 3.281-2.227 5.39-2.227zm9.727-.293c0 .488-.175.903-.527 1.245a1.78 1.78 0 01-1.29.512c-.487 0-.902-.17-1.244-.512a1.695 1.695 0 01-.513-1.245c0-.508.17-.938.513-1.29a1.672 1.672 0 011.245-.527c.488 0 .913.18 1.274.542.362.361.542.786.542 1.275z"/></svg>