<svg width="29" height="26" fill="#fff" xmlns="http://www.w3.org/2000/svg"><path d="M26.514.37a3.252 3.252 0 00-1.02.245h-.005c-.312.123-1.794.747-4.047 1.692l-8.074 3.4c-5.794 2.44-11.489 4.841-11.489 4.841l.068-.026s-.393.129-.803.41a2.22 2.22 0 00-.64.62A1.817 1.817 0 00.2 12.766c.099.79.61 1.264.978 1.525.372.265.726.388.726.388h.009l5.34 1.8c.24.768 1.628 5.332 1.962 6.383.197.627.388 1.02.628 1.32.116.153.251.28.414.384.085.049.175.088.27.116l-.055-.014c.016.005.03.018.041.022a.912.912 0 00.13.025c.845.256 1.524-.269 1.524-.269l.038-.03 3.153-2.871 5.285 4.054.12.052c1.102.483 2.218.214 2.807-.26.594-.479.825-1.09.825-1.09l.038-.098L28.517 3.28c.116-.516.146-1 .018-1.469A1.976 1.976 0 0027.68.666a2.047 2.047 0 00-1.167-.295zm-.11 2.243c-.005.069.008.061-.023.194v.012l-4.046 20.704c-.017.03-.047.094-.127.159-.086.068-.154.11-.509-.03l-6.464-4.957-3.905 3.56.82-5.24 10.562-9.843c.435-.405.29-.49.29-.49.03-.497-.658-.146-.658-.146l-13.317 8.25-.005-.021-6.383-2.15v-.004l-.016-.003a.298.298 0 00.033-.014l.035-.017.034-.012s5.7-2.402 11.493-4.84c2.9-1.223 5.823-2.453 8.07-3.402 2.248-.944 3.91-1.637 4.004-1.674.09-.035.047-.035.111-.035v-.001z"/></svg>