<svg width="32" height="29" fill="#fff" xmlns="http://www.w3.org/2000/svg"><path d="M21.376 2.287c1.667 0 3.073.646 4.219 1.938a11.01 11.01 0 003.625-1.488c-.438 1.476-1.271 2.606-2.5 3.39A10.248 10.248 0 0030 5.16a11.263 11.263 0 01-1.797 2.266c-.344.334-.703.651-1.078.951.02.277.031.542.031.796 0 1.36-.161 2.733-.484 4.117a20.581 20.581 0 01-1.406 4.048 16.675 16.675 0 01-2.344 3.668 17.734 17.734 0 01-3.188 2.975c-1.177.854-2.53 1.522-4.062 2.007a16.018 16.018 0 01-4.86.726c-3.187 0-6.124-.922-8.812-2.768l.672.07c.219.023.453.034.703.034 2.667 0 5.042-.888 7.125-2.664a5.32 5.32 0 01-3.344-1.228c-.979-.796-1.656-1.816-2.03-3.062.124.023.244.046.358.07a4.091 4.091 0 00.734.07 4.697 4.697 0 001.5-.244c-1.312-.276-2.405-.98-3.28-2.11s-1.313-2.445-1.313-3.944v-.07a5.249 5.249 0 002.594.762 5.746 5.746 0 01-1.344-1.332 6.486 6.486 0 01-.89-1.765 6.37 6.37 0 01-.329-2.024 6.549 6.549 0 01.782-3.114 16.353 16.353 0 005.234 4.567 15.405 15.405 0 006.61 1.903 6.418 6.418 0 01-.157-1.418c0-1.707.563-3.16 1.688-4.36 1.125-1.2 2.479-1.799 4.062-1.799zm0-2.214c-1.937 0-3.635.697-5.094 2.093-1.458 1.395-2.312 3.12-2.562 5.172-3.354-.738-6.104-2.525-8.25-5.362-.396-.53-.906-.796-1.531-.796l-.157.034c-.687.047-1.208.393-1.562 1.038a8.833 8.833 0 00-1.063 4.256c0 .992.157 1.95.47 2.872-.334.438-.5.934-.5 1.487v.07c0 2.19.687 4.094 2.062 5.708a2.079 2.079 0 00-.047.571c.01.196.036.386.078.571.458 1.5 1.229 2.756 2.312 3.771a8.498 8.498 0 01-2.156.277 8.81 8.81 0 01-1.156-.07L2 21.732c-.437 0-.828.139-1.172.415a2.26 2.26 0 00-.734 1.073 2.45 2.45 0 00.015 1.47c.157.496.433.871.829 1.125 3 2.076 6.291 3.114 9.875 3.114 2.208 0 4.291-.364 6.25-1.09 1.958-.727 3.656-1.724 5.093-2.993a20.522 20.522 0 003.735-4.377 20.572 20.572 0 002.406-5.293c.552-1.88.839-3.789.86-5.726a13.789 13.789 0 002.437-2.941c.146-.184.25-.392.312-.623.063-.23.094-.473.094-.726 0-.761-.281-1.361-.844-1.8.063-.3.084-.588.063-.864A2.302 2.302 0 0031 1.682a2.065 2.065 0 00-.5-.675 1.909 1.909 0 00-2.03-.329 2.47 2.47 0 00-.25.121 7.782 7.782 0 01-2.094 1.004c-1.417-1.154-3-1.73-4.75-1.73z"/></svg>